ply
format ascii 1.0
comment (C) Hongzhi Wu, Sep 2013.
element vertex 600
property float x
property float y
property float z
property uchar red
property uchar green
property uchar blue
property uchar alpha
end_header
1 -0.997497 0.127171 255 0 0 255 
1 -0.0402539 -0.299417 255 0 0 255 
1 -0.651784 0.717887 255 255 255 255 
1 -0.970031 -0.817194 255 0 0 255 
1 0.97705 -0.108615 255 0 0 255 
1 -0.24424 0.0633259 255 255 255 255 
1 -0.667531 0.32609 255 0 0 255 
1 0.215369 0.566637 255 255 255 255 
1 0.751946 0.453352 255 255 255 255 
1 -0.715323 -0.0758385 255 255 255 255 
1 0.559313 0.687307 255 0 0 255 
1 -0.215125 -0.467574 255 0 0 255 
1 -0.248268 -0.814753 255 255 255 255 
1 0.83758 -0.448225 255 0 0 255 
1 0.675222 0.452986 255 255 255 255 
1 -0.0630818 -0.0840785 255 0 0 255 
1 0.198096 -0.22953 255 255 255 255 
1 -0.277322 -0.69689 255 255 255 255 
1 0.0342112 0.97998 255 255 255 255 
1 0.314615 -0.0162053 255 255 255 255 
1 -0.705008 0.899167 255 255 255 255 
1 -0.393902 -0.146886 255 0 0 255 
1 -0.693533 0.754509 255 255 255 255 
1 -0.644215 0.634388 255 255 255 255 
1 0.464034 -0.188818 255 255 255 255 
1 0.511704 0.443831 255 255 255 255 
1 0.669362 -0.929807 255 255 255 255 
1 -0.790643 0.898679 255 255 255 255 
1 -0.0565508 -0.250038 255 0 0 255 
1 -0.456221 0.965941 255 0 0 255 
1 -0.60802 0.522629 255 255 255 255 
1 0.780328 -0.945067 255 255 255 255 
1 0.0626545 -0.611866 255 0 0 255 
1 -0.604297 0.684317 255 255 255 255 
1 -0.371868 0.882138 255 0 0 255 
1 0.46617 0.66924 255 255 255 255 
1 -0.494552 -0.711051 255 255 255 255 
1 0.705252 -0.578845 255 255 255 255 
1 -0.772454 -0.0909757 255 255 255 255 
1 -0.852229 -0.12656 255 255 255 255 
1 -0.126621 -0.535142 255 255 255 255 
1 -0.679617 0.00827052 255 0 0 255 
1 -0.620106 -0.328104 255 255 255 255 
1 0.996033 -0.804987 255 255 255 255 
1 0.863033 -0.903134 255 255 255 255 
1 0.538133 -0.178564 255 0 0 255 
1 -0.0967742 -0.0672933 255 0 0 255 
1 0.657582 0.24955 255 255 255 255 
1 -0.631458 0.475814 255 0 0 255 
1 -0.62212 0.209449 255 0 0 255 
1 -0.0110782 -0.839228 255 255 255 255 
1 0.382244 0.609058 255 255 255 255 
1 0.823115 0.229408 255 255 255 255 
1 0.953063 -0.369976 255 0 0 255 
1 -0.782891 0.73809 255 255 255 255 
1 -0.346171 -0.841304 255 255 255 255 
1 0.0901822 -0.103488 255 255 255 255 
1 0.00241096 -0.694693 255 0 0 255 
1 0.653371 0.918149 255 0 0 255 
1 0.887997 -0.745537 255 255 255 255 
1 0.219275 0.912229 255 255 255 255 
1 -0.355754 -0.790399 255 255 255 255 
1 0.839961 0.102329 255 255 255 255 
1 -0.241737 -0.00637837 255 0 0 255 
1 0.376324 0.0643025 255 0 0 255 
1 0.415754 -0.798761 255 0 0 255 
1 0.494675 -0.00619526 255 255 255 255 
1 -0.285806 0.911435 255 0 0 255 
1 -0.736747 0.486557 255 0 0 255 
1 -0.340312 -0.88818 255 255 255 255 
1 0.728629 0.193762 255 255 255 255 
1 -0.747063 0.415815 255 0 0 255 
1 -0.66216 0.248207 255 0 0 255 
1 0.322001 0.604785 255 255 255 255 
1 0.596362 0.801202 255 0 0 255 
1 -0.492599 -0.72692 255 255 255 255 
1 0.146702 -0.395428 255 255 255 255 
1 -0.778741 0.616077 255 255 255 255 
1 0.79046 0.579272 255 0 0 255 
1 0.713309 -0.543016 255 255 255 255 
1 0.0848109 0.969665 255 255 255 255 
1 -0.146397 -0.810663 255 255 255 255 
1 -0.7069 -0.749809 255 0 0 255 
1 -0.882565 -0.327189 255 255 255 255 
1 0.892331 0.674368 255 0 0 255 
1 -0.204627 -0.481674 255 0 0 255 
1 -0.202612 -0.517808 255 255 255 255 
1 0.890561 -0.129002 255 0 0 255 
1 0.203101 0.572314 255 255 255 255 
1 -0.233985 -0.991455 255 255 255 255 
1 0.710196 -0.870296 255 255 255 255 
1 0.605396 0.0602741 255 255 255 255 
1 0.455794 0.555467 255 255 255 255 
1 0.413129 -0.829096 255 0 0 255 
1 -0.450056 -0.709647 255 255 255 255 
1 0.844966 -0.264931 255 0 0 255 
1 -0.518906 0.0428785 255 0 0 255 
1 -0.11655 -0.839778 255 255 255 255 
1 0.551744 0.740776 255 0 0 255 
1 0.501267 -0.771905 255 255 255 255 
-0.922849 -1 -0.495834 255 0 0 255 
0.240638 -1 0.770745 0 0 0 255 
0.291116 -1 0.313517 0 0 0 255 
0.328349 -1 -0.698477 255 255 255 255 
0.886044 -1 0.0811487 0 0 0 255 
-0.206091 -1 -0.299478 255 255 255 255 
-0.859432 -1 -0.221168 255 0 0 255 
-0.688223 -1 0.288675 255 255 255 255 
-0.117405 -1 0.368938 0 0 0 255 
-0.600818 -1 0.898923 255 0 0 255 
-0.629383 -1 0.791437 255 0 0 255 
0.417035 -1 -0.900754 255 255 255 255 
0.790643 -1 0.420392 255 0 0 255 
-0.205176 -1 0.807733 255 255 255 255 
-0.292886 -1 0.467391 255 255 255 255 
-0.721366 -1 -0.599658 255 255 255 255 
-0.264321 -1 0.0353099 255 255 255 255 
0.0359203 -1 0.309671 0 0 0 255 
-0.840876 -1 -0.848445 255 255 255 255 
0.394574 -1 -0.714652 255 255 255 255 
0.449873 -1 -0.602588 0 0 0 255 
0.0879849 -1 -0.8034 255 255 255 255 
-0.0719321 -1 0.93994 255 255 255 255 
0.385601 -1 -0.255776 255 0 0 255 
-0.660878 -1 -0.878353 255 255 255 255 
-0.356182 -1 -0.0306711 255 255 255 255 
0.21189 -1 0.517075 0 0 0 255 
0.88464 -1 0.24662 0 0 0 255 
0.727103 -1 -0.226478 0 0 0 255 
0.225135 -1 -0.217627 0 0 0 255 
0.715873 -1 0.873531 255 255 255 255 
0.616749 -1 0.750847 255 255 255 255 
0.586352 -1 -0.0755943 0 0 0 255 
0.63213 -1 0.3455 255 0 0 255 
-0.316874 -1 -0.535813 0 0 0 255 
-0.766289 -1 0.451155 255 255 255 255 
0.0711386 -1 0.80401 0 0 0 255 
0.803095 -1 0.594836 255 255 255 255 
0.257424 -1 -0.629078 255 255 255 255 
0.4644 -1 0.57622 0 0 0 255 
-0.837031 -1 0.613086 255 0 0 255 
0.146641 -1 -0.0540483 255 0 0 255 
0.990051 -1 -0.969298 0 0 0 255 
-0.85577 -1 -0.450056 255 0 0 255 
-0.257546 -1 0.559008 255 255 255 255 
-0.590808 -1 0.942076 0 0 0 255 
-0.696341 -1 -0.906064 255 255 255 255 
-0.313517 -1 -0.170873 0 0 0 255 
0.398541 -1 -0.324015 0 0 0 255 
0.140049 -1 -0.892026 255 255 255 255 
0.726676 -1 -0.0268258 255 255 255 255 
0.556932 -1 0.728446 255 255 255 255 
0.289834 -1 0.493698 0 0 0 255 
0.816645 -1 0.825068 255 255 255 255 
-0.291971 -1 0.646107 255 255 255 255 
0.31492 -1 0.547105 0 0 0 255 
0.367779 -1 0.615223 0 0 0 255 
-0.307718 -1 -0.962889 0 0 0 255 
0.828303 -1 0.274941 0 0 0 255 
-0.216102 -1 0.308023 0 0 0 255 
-0.723136 -1 0.268532 255 255 255 255 
-0.570421 -1 -0.398602 0 0 0 255 
0.216041 -1 -0.794977 255 255 255 255 
-0.0871914 -1 0.423261 0 0 0 255 
0.242409 -1 0.892209 255 0 0 255 
-0.419233 -1 0.096469 255 0 0 255 
-0.0147404 -1 0.904111 255 255 255 255 
-0.108493 -1 0.597522 0 0 0 255 
0.25895 -1 0.819636 255 0 0 255 
-0.0212104 -1 -0.100558 255 255 255 255 
-0.496078 -1 -0.593982 0 0 0 255 
-0.917295 -1 0.282693 255 255 255 255 
-0.107334 -1 -0.877255 0 0 0 255 
-0.899289 -1 -0.654408 0 0 0 255 
0.307169 -1 -0.17893 255 0 0 255 
-0.667104 -1 -0.00491348 255 255 255 255 
-0.990967 -1 -0.321024 255 0 0 255 
0.466597 -1 0.782281 0 0 0 255 
0.46794 -1 0.474349 0 0 0 255 
-0.775628 -1 0.80932 0 0 0 255 
0.738884 -1 0.522752 255 0 0 255 
-0.864498 -1 -0.670278 0 0 0 255 
-0.763298 -1 0.236549 255 255 255 255 
0.831294 -1 0.339457 0 0 0 255 
0.994995 -1 0.54503 255 0 0 255 
-0.637562 -1 0.161962 255 255 255 255 
-0.236549 -1 -0.39201 255 255 255 255 
0.542344 -1 0.52208 255 255 255 255 
-0.147252 -1 0.603076 255 255 255 255 
-0.522996 -1 0.118809 0 0 0 255 
0.714042 -1 -0.880734 0 0 0 255 
0.512131 -1 -0.48851 0 0 0 255 
0.105686 -1 -0.897519 255 255 255 255 
-0.951903 -1 0.463485 0 0 0 255 
0.59386 -1 -0.389142 255 255 255 255 
0.303934 -1 -0.998291 255 255 255 255 
-0.690481 -1 -0.884945 255 255 255 255 
0.395734 -1 0.596301 0 0 0 255 
-0.409406 -1 -0.0460524 255 0 0 255 
-0.713553 -1 -0.713981 0 0 0 255 
-1 0.627674 -0.906735 0 0 0 255 
-1 -0.486984 -0.461287 255 255 255 255 
-1 0.749687 0.775384 255 255 255 255 
-1 -0.652944 -0.632496 255 0 0 255 
-1 0.788934 0.246071 0 0 0 255 
-1 0.461287 0.998657 255 0 0 255 
-1 -0.706656 -0.251198 0 0 0 255 
-1 0.483627 0.43321 255 255 255 255 
-1 0.471847 0.636341 255 255 255 255 
-1 0.299661 0.830866 0 0 0 255 
-1 -0.102268 -0.984863 0 0 0 255 
-1 0.838069 0.00338755 0 0 0 255 
-1 -0.573046 -0.935789 0 0 0 255 
-1 0.612781 0.704031 0 0 0 255 
-1 0.738701 0.293741 0 0 0 255 
-1 -0.266213 -0.930052 255 0 0 255 
-1 -0.350139 0.798029 255 255 255 255 
-1 0.69866 0.787896 255 255 255 255 
-1 0.120151 0.248085 0 0 0 255 
-1 -0.720756 -0.465194 255 255 255 255 
-1 0.917661 0.214454 255 0 0 255 
-1 0.478927 -0.728446 0 0 0 255 
-1 0.496628 -0.332255 255 255 255 255 
-1 -0.898984 0.26194 255 255 255 255 
-1 0.000885037 0.412763 0 0 0 255 
-1 0.194433 -0.472762 0 0 0 255 
-1 -0.296793 -0.971007 255 0 0 255 
-1 -0.232765 -0.944761 255 0 0 255 
-1 -0.135655 0.863094 255 255 255 255 
-1 0.948485 0.730399 0 0 0 255 
-1 0.204688 -0.00289926 0 0 0 255 
-1 -0.533921 0.874691 0 0 0 255 
-1 0.167943 -0.847102 255 255 255 255 
-1 -0.8399 0.749565 0 0 0 255 
-1 0.176855 -0.567553 255 255 255 255 
-1 -0.499863 -0.397198 255 255 255 255 
-1 -0.61858 -0.106418 0 0 0 255 
-1 0.990478 -0.881527 0 0 0 255 
-1 -0.767754 -0.537034 0 0 0 255 
-1 -0.840754 -0.324686 255 255 255 255 
-1 -0.175451 0.849422 255 255 255 255 
-1 -0.196692 0.902646 255 255 255 255 
-1 0.60332 0.185705 0 0 0 255 
-1 -0.464156 0.886654 0 0 0 255 
-1 -0.0542314 -0.648183 0 0 0 255 
-1 0.724601 -0.727775 0 0 0 255 
-1 0.594409 0.559313 255 0 0 255 
-1 0.843013 0.684256 0 0 0 255 
-1 -0.848567 -0.938231 0 0 0 255 
-1 -0.639149 -0.404157 255 255 255 255 
-1 -0.883541 0.0512406 255 255 255 255 
-1 0.799738 -0.736381 0 0 0 255 
-1 -0.501572 0.141392 255 0 0 255 
-1 0.741508 0.865047 255 255 255 255 
-1 0.11594 0.600513 0 0 0 255 
-1 0.644826 -0.223426 255 255 255 255 
-1 -0.437239 0.898923 0 0 0 255 
-1 -0.455245 -0.736076 0 0 0 255 
-1 -0.289346 -0.540147 255 0 0 255 
-1 0.342265 0.965148 255 0 0 255 
-1 0.796075 -0.0312815 0 0 0 255 
-1 -0.326945 -0.30369 255 255 255 255 
-1 0.845637 0.479354 0 0 0 255 
-1 -0.459822 0.533738 0 0 0 255 
-1 -0.316874 -0.911252 255 0 0 255 
-1 0.237037 0.0811487 0 0 0 255 
-1 0.280068 0.393475 255 255 255 255 
-1 -0.152989 0.572924 255 0 0 255 
-1 0.0126041 -0.46147 0 0 0 255 
-1 0.0129093 0.231056 0 0 0 255 
-1 0.720145 -0.325053 0 0 0 255 
-1 0.985412 -0.65508 0 0 0 255 
-1 0.573717 0.299234 255 0 0 255 
-1 -0.564928 0.125156 255 0 0 255 
-1 -0.0925626 0.517685 255 0 0 255 
-1 0.388592 0.746513 255 255 255 255 
-1 0.590808 0.999329 0 0 0 255 
-1 0.186254 -0.611499 255 255 255 255 
-1 -0.521897 -0.489731 255 255 255 255 
-1 0.800104 -0.241127 255 255 255 255 
-1 0.209143 -0.292032 255 0 0 255 
-1 -0.552721 0.791559 0 0 0 255 
-1 -0.596667 -0.435286 255 255 255 255 
-1 -0.560045 -0.800775 0 0 0 255 
-1 0.34373 0.638295 0 0 0 255 
-1 0.870663 -0.418744 0 0 0 255 
-1 0.824458 0.660207 0 0 0 255 
-1 -0.699759 0.0852382 0 0 0 255 
-1 -0.796136 -0.176794 0 0 0 255 
-1 -0.661977 -0.542711 255 255 255 255 
-1 -0.904782 -0.0335398 255 0 0 255 
-1 0.130955 0.925108 255 0 0 255 
-1 -0.193701 -0.173009 0 0 0 255 
-1 -0.43376 -0.995544 0 0 0 255 
-1 -0.156102 0.908994 255 255 255 255 
-1 -0.318888 0.246254 0 0 0 255 
-1 -0.211158 -0.446272 0 0 0 255 
-1 -0.376934 -0.604663 255 0 0 255 
-1 -0.133518 -0.263039 0 0 0 255 
-1 0.755486 -0.325175 0 0 0 255 
-0.162816 1 0.21659 0 0 0 255 
-0.584155 1 -0.825312 0 0 0 255 
-0.334452 1 -0.841365 255 255 255 255 
0.649953 1 -0.12186 0 0 0 255 
0.0379955 1 -0.470809 0 0 0 255 
-0.784967 1 0.938414 0 0 0 255 
-0.554674 1 -0.394757 0 0 0 255 
0.529466 1 0.683218 255 0 0 255 
0.469832 1 -0.817194 255 255 255 255 
0.275613 1 -0.28074 0 0 0 255 
-0.62328 1 -0.313761 255 255 255 255 
-0.691458 1 -0.316935 255 255 255 255 
-0.65508 1 -0.329447 255 255 255 255 
0.618519 1 -0.107089 0 0 0 255 
-0.0558184 1 0.39848 0 0 0 255 
-0.400922 1 0.644887 0 0 0 255 
-0.985595 1 -0.478072 0 0 0 255 
0.0348827 1 0.415021 0 0 0 255 
-0.812922 1 0.651967 255 255 255 255 
0.286538 1 0.0301828 255 255 255 255 
-0.850764 1 -0.989624 0 0 0 255 
-0.624683 1 -0.796564 0 0 0 255 
0.648427 1 0.674368 0 0 0 255 
-0.702017 1 0.941588 255 255 255 255 
-0.590747 1 -0.604541 0 0 0 255 
0.186987 1 0.477584 255 255 255 255 
0.842647 1 0.856868 0 0 0 255 
-0.876217 1 0.80755 0 0 0 255 
0.913388 1 -0.236854 0 0 0 255 
-0.239784 1 -0.133457 0 0 0 255 
0.0556963 1 0.604114 0 0 0 255 
0.655568 1 0.118076 255 255 255 255 
0.822504 1 0.525803 255 0 0 255 
-0.350871 1 -0.899716 255 255 255 255 
-0.710257 1 0.750542 255 255 255 255 
-0.0965911 1 0.523545 0 0 0 255 
-0.651112 1 -0.354656 255 255 255 255 
0.725761 1 -0.905393 255 255 255 255 
-0.835261 1 0.10538 0 0 0 255 
-0.845637 1 -0.39079 0 0 0 255 
-0.496628 1 0.641285 0 0 0 255 
0.833064 1 -0.756523 255 255 255 255 
-0.410504 1 -0.310709 0 0 0 255 
-0.865352 1 0.658437 0 0 0 255 
0.893368 1 0.446211 0 0 0 255 
0.0976897 1 -0.269448 255 255 255 255 
0.0148015 1 -0.77514 255 255 255 255 
-0.261635 1 0.716239 0 0 0 255 
-0.115818 1 0.17185 0 0 0 255 
-0.0348216 1 0.67333 0 0 0 255 
-0.91876 1 -0.556444 0 0 0 255 
-0.114536 1 -0.733879 0 0 0 255 
-0.563463 1 0.847652 0 0 0 255 
-0.979431 1 0.91113 0 0 0 255 
-0.525864 1 0.771416 0 0 0 255 
0.0704062 1 0.83343 0 0 0 255 
0.931639 1 -0.805841 255 255 255 255 
-0.343181 1 0.250832 0 0 0 255 
0.797357 1 -0.0438551 0 0 0 255 
0.165502 1 -0.174474 255 255 255 255 
-0.702628 1 -0.505234 0 0 0 255 
0.652882 1 -0.0185247 0 0 0 255 
0.279824 1 -0.801569 0 0 0 255 
0.0400708 1 0.924558 255 255 255 255 
-0.251747 1 0.62682 0 0 0 255 
-0.275246 1 -0.528794 255 255 255 255 
0.126438 1 -0.650563 0 0 0 255 
-0.441145 1 -0.658071 255 255 255 255 
-0.549852 1 0.31608 0 0 0 255 
-0.887936 1 -0.340983 255 255 255 255 
-0.674062 1 -0.262917 0 0 0 255 
-0.478378 1 0.249672 0 0 0 255 
0.424299 1 -0.324198 0 0 0 255 
0.261391 1 -0.747246 0 0 0 255 
0.728263 1 0.183874 255 255 255 255 
0.106967 1 -0.300821 255 255 255 255 
-0.998718 1 0.0939055 0 0 0 255 
0.670461 1 0.447615 255 255 255 255 
-0.796442 1 -0.221229 0 0 0 255 
0.381878 1 0.341533 0 0 0 255 
0.139012 1 -0.470138 255 255 255 255 
0.954955 1 -0.0242012 255 0 0 255 
-0.302957 1 -0.0347606 255 0 0 255 
-0.558763 1 0.260537 0 0 0 255 
-0.0841395 1 0.284646 0 0 0 255 
-0.800043 1 0.301492 0 0 0 255 
0.989074 1 0.508225 0 0 0 255 
0.737724 1 0.23191 255 255 255 255 
0.512436 1 -0.694449 255 255 255 255 
0.659963 1 0.772088 255 0 0 255 
-0.023835 1 -0.0972625 255 0 0 255 
0.166112 1 -0.279336 255 255 255 255 
0.99414 1 -0.911069 0 0 0 255 
-0.132176 1 -0.460555 255 255 255 255 
0.283486 1 0.786187 0 0 0 255 
-0.535875 1 0.928831 255 0 0 255 
0.206763 1 0.242897 0 0 0 255 
-0.782403 1 0.0633259 0 0 0 255 
0.0218207 1 -0.0831019 255 255 255 255 
-0.508347 1 -0.792901 255 255 255 255 
-0.901852 -0.227638 1 255 255 255 255 
-0.918332 -0.991211 1 0 0 0 255 
0.501755 -0.717826 1 255 255 255 255 
0.952025 -0.857784 1 0 0 0 255 
0.778008 0.150304 1 0 0 0 255 
-0.474105 -0.649037 1 0 0 0 255 
0.717277 -0.102939 1 0 0 0 255 
-0.883541 0.631947 1 0 0 0 255 
-0.371746 -0.764702 1 0 0 0 255 
0.684988 -0.500473 1 255 0 0 255 
-0.588549 0.857479 1 255 255 255 255 
0.11594 0.261452 1 0 0 0 255 
-0.222571 0.100375 1 0 0 0 255 
-0.139927 0.254677 1 255 255 255 255 
-0.463301 -0.790521 1 0 0 0 255 
-0.639454 0.293008 1 0 0 0 255 
0.249794 0.833613 1 255 255 255 255 
0.402264 0.408246 1 0 0 0 255 
0.922056 -0.802301 1 0 0 0 255 
-0.348064 0.581042 1 0 0 0 255 
-0.896542 -0.625294 1 255 0 0 255 
0.442854 0.801508 1 255 255 255 255 
-0.040376 0.455 1 0 0 0 255 
-0.45201 -0.274209 1 0 0 0 255 
-0.13065 -0.551439 1 255 255 255 255 
0.534532 -0.347697 1 255 0 0 255 
0.123875 -0.304178 1 0 0 0 255 
-0.454634 0.777764 1 0 0 0 255 
0.602832 0.659536 1 0 0 0 255 
0.264809 0.965087 1 255 255 255 255 
0.134556 -0.52324 1 0 0 0 255 
0.639882 -0.194983 1 0 0 0 255 
0.861751 0.807733 1 0 0 0 255 
0.904538 0.83404 1 0 0 0 255 
-0.422712 0.584948 1 0 0 0 255 
0.828791 0.636952 1 0 0 0 255 
0.922361 -0.509018 1 0 0 0 255 
0.154515 -0.545274 1 0 0 0 255 
0.793451 -0.381512 1 255 0 0 255 
0.116977 0.0958586 1 255 0 0 255 
0.546251 -0.945494 1 0 0 0 255 
0.0518509 -0.345561 1 0 0 0 255 
0.851741 0.320902 1 0 0 0 255 
-0.410504 -0.970763 1 0 0 0 255 
-0.389508 -0.0497757 1 255 0 0 255 
0.0991546 -0.245521 1 0 0 0 255 
0.415326 0.231605 1 255 0 0 255 
-0.887265 -0.544115 1 255 0 0 255 
-0.086642 0.569262 1 0 0 0 255 
0.678762 -0.422468 1 0 0 0 255 
-0.685415 -0.7846 1 255 0 0 255 
-0.772332 -0.863033 1 0 0 0 255 
0.468856 0.609119 1 0 0 0 255 
0.814692 -0.588183 1 255 255 255 255 
-0.359233 -0.566454 1 255 255 255 255 
-0.203894 -0.11362 1 0 0 0 255 
-0.398785 0.0389721 1 255 0 0 255 
-0.65508 0.744438 1 0 0 0 255 
0.170568 -0.681387 1 0 0 0 255 
0.96411 0.930906 1 0 0 0 255 
0.153722 0.725028 1 0 0 0 255 
-0.434004 0.577258 1 0 0 0 255 
0.935911 -0.884518 1 0 0 0 255 
-0.996033 -0.365886 1 0 0 0 255 
-0.877743 0.778008 1 0 0 0 255 
0.413129 0.13712 1 0 0 0 255 
-0.24955 0.552049 1 0 0 0 255 
0.597766 0.896481 1 0 0 0 255 
0.0278634 0.686636 1 0 0 0 255 
0.237465 -0.206946 1 0 0 0 255 
-0.494003 0.20011 1 0 0 0 255 
0.124485 -0.457381 1 0 0 0 255 
-0.660268 -0.701956 1 255 0 0 255 
0.244301 0.99292 1 255 255 255 255 
0.0503861 -0.908628 1 255 255 255 255 
-0.486007 -0.989319 1 0 0 0 255 
-0.738334 0.708975 1 0 0 0 255 
-0.346904 -0.96765 1 0 0 0 255 
-0.539781 0.149205 1 0 0 0 255 
-0.770501 0.653981 1 255 255 255 255 
0.194311 0.128758 1 255 0 0 255 
-0.356792 -0.531846 1 0 0 0 255 
0.520859 -0.000762963 1 0 0 0 255 
-0.0580157 0.968749 1 255 255 255 255 
-0.814814 -0.221229 1 255 255 255 255 
0.147008 -0.0116276 1 255 0 0 255 
-0.774773 0.721915 1 0 0 0 255 
-0.542344 -0.939634 1 255 0 0 255 
-0.319498 0.887936 1 0 0 0 255 
0.553331 0.552538 1 0 0 0 255 
-0.894345 0.108066 1 0 0 0 255 
0.462874 -0.339824 1 0 0 0 255 
0.889279 0.84991 1 0 0 0 255 
0.383526 -0.3867 1 0 0 0 255 
0.209387 -0.0179144 1 0 0 0 255 
-0.353069 0.00552385 1 255 255 255 255 
0.0735801 -0.398297 1 0 0 0 255 
-0.997559 -0.766961 1 0 0 0 255 
0.531358 -0.847224 1 0 0 0 255 
-0.232765 -0.104221 1 255 255 255 255 
0.0773644 0.28843 -1 255 255 255 255 
0.427656 0.907407 -1 0 0 0 255 
0.716849 0.556566 -1 0 0 0 255 
-0.782403 -0.763665 -1 255 255 255 255 
-0.594348 0.275002 -1 255 255 255 255 
0.297952 0.908017 -1 0 0 0 255 
-0.154332 -0.846187 -1 0 0 0 255 
0.66332 0.384014 -1 0 0 0 255 
-0.832942 -0.431745 -1 0 0 0 255 
-0.934629 0.958068 -1 0 0 0 255 
-0.888607 0.142491 -1 0 0 0 255 
-0.694937 -0.395428 -1 0 0 0 255 
0.192602 0.711905 -1 0 0 0 255 
0.471908 -0.94879 -1 0 0 0 255 
-0.79284 0.0497757 -1 0 0 0 255 
0.334391 0.957579 -1 0 0 0 255 
0.641713 -0.783807 -1 255 0 0 255 
-0.626148 0.228919 -1 255 255 255 255 
0.231056 0.265664 -1 255 255 255 255 
0.142674 0.918149 -1 0 0 0 255 
-0.589587 0.585803 -1 0 0 0 255 
-0.0232856 0.126011 -1 255 0 0 255 
-0.0760826 -0.419721 -1 0 0 0 255 
0.846919 -0.949889 -1 0 0 0 255 
-0.348308 -0.992737 -1 0 0 0 255 
0.542039 -0.900937 -1 0 0 0 255 
-0.948668 -0.71221 -1 0 0 0 255 
0.694327 -0.957274 -1 0 0 0 255 
-0.277993 -0.240211 -1 0 0 0 255 
-0.369854 -0.250832 -1 0 0 0 255 
-0.257179 -0.581164 -1 0 0 0 255 
-0.0918912 -0.577441 -1 0 0 0 255 
-0.133702 0.41026 -1 255 255 255 255 
-0.0596026 -0.348308 -1 0 0 0 255 
-0.399762 -0.335246 -1 0 0 0 255 
0.537523 0.253822 -1 0 0 0 255 
-0.0465407 0.85699 -1 0 0 0 255 
0.810907 0.105258 -1 0 0 0 255 
-0.611438 -0.444441 -1 0 0 0 255 
-0.126072 -0.860225 -1 0 0 0 255 
0.575243 -0.717277 -1 255 0 0 255 
-0.558153 0.713553 -1 255 255 255 255 
-0.878658 -0.545824 -1 0 0 0 255 
-0.00381481 0.837458 -1 0 0 0 255 
0.820917 0.0808435 -1 0 0 0 255 
-0.096408 0.610462 -1 0 0 0 255 
0.352641 0.929991 -1 0 0 0 255 
-0.993103 -0.202673 -1 255 0 0 255 
-0.95996 0.816523 -1 0 0 0 255 
-0.00808741 0.143712 -1 0 0 0 255 
-0.511277 0.0732749 -1 0 0 0 255 
0.523362 -0.0575274 -1 0 0 0 255 
-0.0932951 0.28544 -1 0 0 0 255 
0.994446 -0.173376 -1 0 0 0 255 
-0.0676595 0.314005 -1 0 0 0 255 
0.983886 0.997681 -1 0 0 0 255 
0.0957976 0.732963 -1 255 255 255 255 
0.428694 0.372967 -1 0 0 0 255 
-0.12949 0.306742 -1 0 0 0 255 
-0.666066 -0.318155 -1 0 0 0 255 
-0.113559 0.295755 -1 0 0 0 255 
0.816218 0.625538 -1 255 255 255 255 
-0.479843 -0.555467 -1 0 0 0 255 
0.653554 -0.923154 -1 255 0 0 255 
-0.997436 0.728385 -1 0 0 0 255 
0.553514 -0.807489 -1 255 0 0 255 
0.643056 0.56444 -1 0 0 0 255 
0.287759 0.484054 -1 0 0 0 255 
0.00521867 0.478072 -1 0 0 0 255 
-0.0561846 0.602832 -1 0 0 0 255 
0.14243 0.406476 -1 255 255 255 255 
0.0447707 -0.918577 -1 255 255 255 255 
-0.452864 0.169103 -1 0 0 0 255 
0.451155 -0.206519 -1 0 0 0 255 
0.554979 -0.610645 -1 0 0 0 255 
-0.977966 -0.305094 -1 255 0 0 255 
0.804315 0.560289 -1 0 0 0 255 
0.23954 -0.257973 -1 0 0 0 255 
-0.751335 -0.734733 -1 255 255 255 255 
0.624256 -0.00558489 -1 0 0 0 255 
-0.60564 0.03708 -1 0 0 0 255 
0.060152 0.0553911 -1 255 255 255 255 
-0.858577 0.215491 -1 255 255 255 255 
0.334696 -0.571032 -1 0 0 0 255 
0.0975066 -0.297891 -1 0 0 0 255 
0.548326 -0.671316 -1 255 0 0 255 
0.750603 -0.0498367 -1 0 0 0 255 
-0.196081 -0.787774 -1 0 0 0 255 
0.688955 -0.875057 -1 255 0 0 255 
0.993286 -0.914243 -1 0 0 0 255 
0.387982 0.375164 -1 0 0 0 255 
-0.183508 -0.328715 -1 0 0 0 255 
0.198218 0.815485 -1 0 0 0 255 
0.643056 0.114475 -1 0 0 0 255 
0.311014 0.386517 -1 0 0 0 255 
-0.300638 0.271401 -1 0 0 0 255 
-0.0933561 0.481491 -1 255 255 255 255 
0.607288 -0.991089 -1 0 0 0 255 
-0.35551 0.357524 -1 0 0 0 255 
-0.265542 0.628773 -1 0 0 0 255 
